<?xml version="1.0" encoding="utf-8"?>
<!-- Generator: Adobe Illustrator 16.0.0, SVG Export Plug-In . SVG Version: 6.00 Build 0)  -->
<!DOCTYPE svg PUBLIC "-//W3C//DTD SVG 1.1//EN" "http://www.w3.org/Graphics/SVG/1.1/DTD/svg11.dtd">
<svg version="1.1" id="Layer_1" xmlns="http://www.w3.org/2000/svg" xmlns:xlink="http://www.w3.org/1999/xlink" x="0px" y="0px"
	 width="1056px" height="1312px" viewBox="0 0 1056 1312" enable-background="new 0 0 1056 1312" xml:space="preserve">
<g>
	<defs>
		<rect id="SVGID_1_" x="42.667" y="53.389" width="164.409" height="214.805"/>
	</defs>
	<clipPath id="SVGID_2_">
		<use xlink:href="#SVGID_1_"  overflow="visible"/>
	</clipPath>
	<line clip-path="url(#SVGID_2_)" fill="none" stroke="#FFFFFF" x1="124.429" y1="212.44" x2="125.442" y2="268.185"/>
	<path clip-path="url(#SVGID_2_)" fill="#00A85D" d="M194.472,121.471V55.688H55.271l0.024,26.295c0,6.958,0,23.315-0.012,32.724
		l-0.002,6.764H44.967v33.888h0.048l10.99,6.032c2.609,21.705,12.213,39.354,28.629,52.547c9.889,7.961,19.803,14.261,26.379,18.144
		l13.871,7.718l13.895-7.736l0.135-0.076c6.48-3.825,16.289-10.062,26.217-18.045c16.363-13.157,25.951-30.781,28.588-52.473
		l11.01-6.11h0.049v-33.888H194.472z"/>
	<path clip-path="url(#SVGID_2_)" fill="#FFFFFF" d="M196.771,53.389h-2.3H55.271H52.97l0.002,2.302l0.023,26.295
		c0,6.975,0,23.312-0.012,32.719l-0.001,4.467h-8.015h-2.3v2.3v33.887v2.3h1.758l9.446,5.186
		c2.885,21.775,12.746,39.564,29.322,52.887c9.996,8.046,20.01,14.41,26.651,18.332l0.024,0.015l0.026,0.015l13.871,7.718
		l1.118,0.623l1.119-0.623l13.894-7.737l0.144-0.081l0.021-0.012l0.021-0.012c6.546-3.864,16.453-10.164,26.488-18.234
		c16.523-13.285,26.371-31.051,29.28-52.818l9.472-5.257h1.754v-2.3v-33.887v-2.3h-2.301h-8.005V55.688V53.389z M194.472,55.688
		v65.782h10.305v33.887h-0.049l-11.01,6.111c-2.637,21.691-12.225,39.315-28.588,52.472c-9.928,7.984-19.736,14.22-26.217,18.046
		l-0.135,0.076l-13.895,7.737l-13.871-7.718c-6.576-3.885-16.49-10.185-26.379-18.146c-16.416-13.193-26.02-30.842-28.629-52.546
		l-10.99-6.033h-0.048v-33.887h10.314l0.002-6.764c0.012-9.407,0.012-25.766,0.012-32.724l-0.024-26.295H194.472z"/>
	<path clip-path="url(#SVGID_2_)" fill="#00A85D" d="M91.72,80.071c0.928,1.614,1.395,3.334,1.395,5.155
		c0,1.264-0.232,2.517-0.697,3.762s-1.162,2.313-2.09,3.204c1.039-0.259,2.071-0.65,3.092-1.168
		c1.023-0.522,1.942-1.146,2.761-1.869c0.817-0.727,1.467-1.534,1.95-2.426c0.481-0.892,0.724-1.837,0.724-2.843
		c0-1.15-0.261-2.201-0.781-3.147c-0.52-0.947-1.225-1.756-2.116-2.427c-0.892-0.668-1.951-1.188-3.178-1.561
		c-1.225-0.37-2.527-0.555-3.902-0.555c-0.186,0-0.36,0.008-0.528,0.024c-0.167,0.021-0.306,0.03-0.417,0.03
		C89.528,77.18,90.79,78.453,91.72,80.071"/>
	<path clip-path="url(#SVGID_2_)" fill="#00A85D" d="M89.657,93.141c0.595,0.222,1.256,0.65,1.98,1.281
		c0.723,0.632,1.401,1.412,2.034,2.34c0.63,0.93,1.16,1.972,1.587,3.123c0.428,1.151,0.643,2.34,0.643,3.565
		c0,1.079-0.133,2.155-0.391,3.231c-0.26,1.079-0.697,2.11-1.309,3.096c-0.615,0.982-1.405,1.885-2.37,2.703
		c-0.968,0.815-2.138,1.486-3.513,2.006c1.785,0,3.541-0.27,5.268-0.81c1.729-0.537,3.279-1.3,4.654-2.282
		c1.375-0.986,2.48-2.177,3.313-3.568c0.839-1.394,1.255-2.944,1.255-4.655c0-1.596-0.352-3.009-1.057-4.234
		c-0.705-1.228-1.665-2.26-2.871-3.096c-1.207-0.834-2.602-1.476-4.18-1.92C93.122,93.473,91.44,93.215,89.657,93.141"/>
	<path clip-path="url(#SVGID_2_)" fill="#00A85D" d="M130.065,77.34c0.481,0.574,0.726,1.385,0.726,2.424
		c0,0.854-0.17,1.858-0.502,3.01c-0.336,1.152-0.82,2.601-1.45,4.347l9.811-10.924h-10.535
		C128.933,76.383,129.581,76.765,130.065,77.34"/>
	<path clip-path="url(#SVGID_2_)" fill="#00A85D" d="M123.935,99.828c0.631,1.078,1.309,2.219,2.033,3.429
		c0.725,1.208,1.402,2.358,2.035,3.454c0.631,1.098,1.18,2.043,1.643,2.844c0.465,0.799,0.773,1.345,0.922,1.642
		c0.224,0.411,0.465,0.809,0.725,1.2c0.259,0.39,0.584,0.735,0.974,1.031c0.392,0.298,0.874,0.548,1.451,0.752
		c0.575,0.205,1.271,0.306,2.088,0.306h6.578c-0.669-0.667-1.544-1.505-2.621-2.507c-1.078-1.004-2.378-2.508-3.901-4.514
		c-0.965-1.302-1.959-2.761-2.98-4.377s-1.98-3.202-2.87-4.766c-0.894-1.56-1.7-3.036-2.427-4.43
		c-0.723-1.394-1.271-2.52-1.643-3.372c-0.26,0.295-0.595,0.66-1.002,1.087c-0.41,0.427-0.838,0.873-1.283,1.337
		c-0.445,0.465-0.883,0.911-1.309,1.339c-0.428,0.426-0.791,0.788-1.088,1.086c0.148,0.26,0.475,0.799,0.977,1.615
		C122.735,97.804,123.303,98.751,123.935,99.828"/>
	<path clip-path="url(#SVGID_2_)" fill="#00A85D" d="M163.595,80.071c0.93,1.614,1.395,3.334,1.395,5.155
		c0,1.264-0.232,2.517-0.695,3.762c-0.467,1.245-1.164,2.313-2.092,3.204c1.039-0.259,2.071-0.65,3.094-1.168
		c1.021-0.522,1.94-1.146,2.759-1.869c0.815-0.727,1.468-1.534,1.95-2.426c0.483-0.892,0.724-1.837,0.724-2.843
		c0-1.15-0.261-2.201-0.78-3.147c-0.519-0.947-1.226-1.756-2.117-2.427c-0.891-0.668-1.951-1.188-3.178-1.561
		c-1.225-0.37-2.527-0.555-3.9-0.555c-0.188,0-0.363,0.008-0.53,0.024c-0.166,0.021-0.306,0.03-0.416,0.03
		C161.401,77.18,162.665,78.453,163.595,80.071"/>
	<path clip-path="url(#SVGID_2_)" fill="#00A85D" d="M161.534,93.141c0.591,0.222,1.252,0.65,1.979,1.281
		c0.725,0.632,1.401,1.412,2.033,2.34c0.631,0.93,1.16,1.972,1.588,3.123s0.643,2.34,0.643,3.565c0,1.079-0.131,2.155-0.393,3.231
		c-0.258,1.079-0.695,2.11-1.309,3.096c-0.613,0.982-1.404,1.885-2.369,2.703c-0.967,0.815-2.137,1.486-3.51,2.006
		c1.783,0,3.539-0.27,5.266-0.81c1.729-0.537,3.279-1.3,4.652-2.282c1.375-0.986,2.481-2.177,3.318-3.568
		c0.836-1.394,1.254-2.944,1.254-4.655c0-1.596-0.353-3.009-1.06-4.234c-0.707-1.228-1.662-2.26-2.869-3.096
		c-1.208-0.834-2.601-1.476-4.18-1.92C164.995,93.473,163.317,93.215,161.534,93.141"/>
</g>
<rect x="76.708" y="76.196" fill="#00A85D" width="6.275" height="38.234"/>
<rect x="110.885" y="76.196" fill="#00A85D" width="6.276" height="38.234"/>
<rect x="148.032" y="76.196" fill="#00A85D" width="6.275" height="38.234"/>
<g>
	<defs>
		<rect id="SVGID_3_" x="42.667" y="53.389" width="164.409" height="214.805"/>
	</defs>
	<clipPath id="SVGID_4_">
		<use xlink:href="#SVGID_3_"  overflow="visible"/>
	</clipPath>
	<path clip-path="url(#SVGID_4_)" fill="#00A85D" d="M202.278,152.504h-7.873h-4.648h-2.876h-3.39h-1.711h-3.856h-9.382h-9.416
		h-9.381h-9.414h-9.383h-9.416h-9.381h-9.414h-9.384H83.94h-9.382h-6.614h-1.713h-3.37h-2.876h-4.652h-7.869v-28.535h7.815h4.705
		h2.877h4.671h0.006h114.675h0.005h4.662h2.876h4.715h7.807V152.504z M75.07,156.559c0,3.514-0.887,5.654-2.187,7.641
		c-0.499,0.761-1.054,1.497-1.647,2.28c-0.444,0.587-0.909,1.201-1.372,1.858c-0.946-4.062-1.572-8.388-1.82-12.979h6.984
		C75.053,155.742,75.07,156.137,75.07,156.559 M93.864,156.559c0,3.512-0.886,5.649-2.186,7.637
		c-0.497,0.761-1.053,1.501-1.648,2.284c-2.4,3.171-5.386,7.116-5.386,14.438c0,7.319,2.985,11.264,5.386,14.437
		c2.143,2.826,3.834,5.062,3.834,9.917c0,0.119-0.004,0.229-0.008,0.345c-0.514-0.406-1.029-0.812-1.544-1.228
		c-6.579-5.287-12.653-12.33-17.095-21.178c-0.095-0.698-0.148-1.454-0.148-2.293c0-4.855,1.692-7.096,3.835-9.923
		c2.401-3.169,5.385-7.117,5.385-14.437c0-0.414-0.018-0.809-0.035-1.2h9.568C93.848,155.742,93.864,156.137,93.864,156.559
		 M112.663,156.559c0,3.515-0.889,5.654-2.189,7.641c-0.497,0.761-1.054,1.497-1.646,2.28c-2.398,3.171-5.385,7.116-5.385,14.438
		c0,7.319,2.986,11.264,5.385,14.437c2.145,2.826,3.836,5.062,3.836,9.919s-1.694,7.095-3.836,9.921
		c-0.184,0.242-0.371,0.492-0.561,0.745c-1.951-1.278-4.002-2.666-6.115-4.156c0.57-1.838,0.936-3.967,0.936-6.512
		c0-7.321-2.986-11.265-5.385-14.433c-2.145-2.832-3.838-5.063-3.838-9.921c0-4.855,1.693-7.096,3.838-9.923
		c2.398-3.169,5.385-7.117,5.385-14.437c0-0.414-0.018-0.809-0.037-1.2h9.572C112.646,155.742,112.663,156.137,112.663,156.559
		 M131.458,156.559c0,3.514-0.887,5.654-2.187,7.641c-0.5,0.761-1.056,1.497-1.647,2.28c-2.4,3.171-5.387,7.116-5.387,14.438
		c0,7.319,2.986,11.264,5.387,14.437c2.142,2.826,3.834,5.062,3.834,9.919s-1.692,7.095-3.834,9.921
		c-1.782,2.355-3.885,5.14-4.85,9.411l-5.599-3.112c-0.446-0.265-0.914-0.544-1.39-0.83c0.23-0.312,0.465-0.627,0.711-0.952
		c2.4-3.172,5.387-7.115,5.387-14.438c0-7.323-2.986-11.267-5.387-14.435c-2.142-2.832-3.834-5.063-3.834-9.921
		c0-4.855,1.692-7.094,3.834-9.923c2.4-3.169,5.387-7.114,5.387-14.437c0-0.414-0.018-0.809-0.036-1.2h9.567
		C131.44,155.742,131.458,156.137,131.458,156.559 M150.257,156.559c0,3.514-0.887,5.654-2.189,7.641
		c-0.496,0.761-1.054,1.497-1.646,2.28c-2.4,3.171-5.388,7.116-5.388,14.438c0,7.319,2.987,11.264,5.388,14.437
		c2.146,2.826,3.835,5.062,3.835,9.917c0,1.86-0.252,3.335-0.68,4.606l-14.472,10.081c0.063-0.083,0.123-0.163,0.187-0.248
		c2.402-3.172,5.391-7.115,5.391-14.438c0-7.323-2.988-11.267-5.391-14.435c-2.141-2.832-3.834-5.063-3.834-9.921
		c0-4.855,1.693-7.094,3.834-9.923c2.402-3.169,5.391-7.114,5.391-14.437c0-0.414-0.018-0.809-0.037-1.2h9.569
		C150.239,155.742,150.257,156.137,150.257,156.559 M169.054,156.559c0,3.514-0.887,5.654-2.189,7.641
		c-0.498,0.761-1.053,1.497-1.646,2.28c-2.402,3.171-5.387,7.116-5.387,14.438c0,7.319,2.984,11.264,5.387,14.437
		c0.206,0.268,0.454,0.61,0.656,0.883c-2.066,2.402-4.256,4.588-6.52,6.558c-0.601-5.718-3.16-9.181-5.262-11.956
		c-2.143-2.832-3.836-5.063-3.836-9.921c0-4.855,1.693-7.096,3.836-9.923c2.398-3.169,5.384-7.117,5.384-14.437
		c0-0.414-0.017-0.809-0.036-1.2h9.571C169.036,155.742,169.054,156.137,169.054,156.559 M171.393,188.781
		c-1.36-2.033-2.339-4.253-2.339-7.863c0-4.855,1.689-7.096,3.834-9.923c2.4-3.169,5.389-7.117,5.389-14.437
		c0-0.414-0.019-0.809-0.037-1.2h3.438C180.958,168.789,177.024,179.891,171.393,188.781 M162.167,210.732
		c-9.705,7.803-19.314,13.911-25.663,17.66l-11.648,6.482l-11.452-6.369c-6.475-3.822-16.185-9.992-25.856-17.776
		c-16.873-13.562-26.092-32.182-27.436-55.371h2.881c1.323,22.247,10.18,40.126,26.358,53.129
		c9.539,7.677,19.123,13.767,25.483,17.525l10.021,5.571l10.22-5.687c6.235-3.685,15.717-9.711,25.289-17.408
		c16.166-12.999,25.029-30.866,26.383-53.131h2.881C188.249,178.567,179.023,197.173,162.167,210.732 M67.53,114.713
		c0.011-9.404,0.011-25.767,0.011-32.735L67.53,67.278h0.006h114.678h0.005v54.192h-0.005H67.538h-0.006L67.53,114.713z
		 M59.985,60.157h129.772v61.313h-2.876V63.034H62.862v58.437h-2.877V60.157z M194.472,121.471V55.688H55.271l0.024,26.295
		c0,6.958,0,23.315-0.012,32.724l-0.002,6.764H44.967v33.888h0.048l10.99,6.032c2.609,21.705,12.213,39.354,28.629,52.547
		c9.889,7.961,19.803,14.261,26.379,18.144l13.871,7.718l13.895-7.736l0.135-0.076c6.48-3.825,16.289-10.062,26.217-18.045
		c16.363-13.157,25.951-30.781,28.588-52.473l11.01-6.11h0.049v-33.888H194.472z"/>
	<path clip-path="url(#SVGID_4_)" fill="#00A85D" d="M190.136,140.049c-0.131,0-0.256-0.015-0.379-0.038
		c-0.884-0.177-1.552-0.957-1.552-1.895c0-0.937,0.668-1.718,1.552-1.894c0.123-0.025,0.248-0.038,0.379-0.038
		c1.067,0,1.934,0.866,1.934,1.932C192.069,139.184,191.203,140.049,190.136,140.049 M66.965,144.746l0.574-1.525l0.006-0.016
		l4.373-11.61h3.395l4.896,13.151h-3.19l-0.946-2.672H70.99l-0.945,2.672h-2.499H67.54H66.965z M89.54,131.316
		c3.951,0,5.695,2.54,6.121,4.433l-2.764,0.871c-0.204-0.908-1.039-2.447-3.357-2.447c-1.762,0-3.747,1.261-3.747,4.024
		c0,2.467,1.817,3.896,3.784,3.896c2.281,0,3.191-1.522,3.451-2.467l2.801,0.797c-0.427,1.818-2.171,4.6-6.252,4.6
		c-3.784,0-6.827-2.726-6.827-6.826C82.75,134.099,85.866,131.316,89.54,131.316 M103.322,131.595h3.394l4.897,13.151h-3.19
		l-0.945-2.672h-5.084l-0.945,2.672h-3.08L103.322,131.595z M115.638,131.595h4.769c3.951,0,6.603,2.521,6.603,6.586
		c0,4.062-2.651,6.565-6.623,6.565h-4.748V131.595z M131.515,131.595h8.33v2.764h-5.397v2.504h4.897v2.578h-4.897v2.523h5.416v2.782
		h-8.349V131.595z M144.742,131.595h3.821l3.617,8.885l3.431-8.885h4.026v13.151h-2.875v-8.719l-3.432,8.719h-2.374l-3.433-8.606
		v8.606h-2.782V131.595z M164.905,131.595h2.968v13.151h-2.968V131.595z M173.122,131.595h8.33v2.764h-5.398v2.504h4.896v2.578
		h-4.896v2.523h5.416v2.782h-8.348V131.595z M59.985,140.011c-0.122,0.023-0.249,0.038-0.378,0.038
		c-1.067,0-1.933-0.865-1.933-1.933c0-1.065,0.866-1.932,1.933-1.932c0.129,0,0.256,0.013,0.378,0.038
		c0.885,0.176,1.553,0.957,1.553,1.894C61.538,139.054,60.87,139.834,59.985,140.011 M189.757,126.05h-2.875h-4.664h-0.004H67.539
		h-0.006h-4.671h-2.877h-4.706h-5.733v24.374h5.743h4.696h2.877h124.02h2.875h4.701h5.739V126.05h-5.726H189.757z"/>
</g>
<polygon fill="#00A85D" points="73.569,134.859 71.955,139.403 75.146,139.403 "/>
<g>
	<defs>
		<rect id="SVGID_5_" x="42.667" y="53.389" width="164.409" height="214.805"/>
	</defs>
	<clipPath id="SVGID_6_">
		<use xlink:href="#SVGID_5_"  overflow="visible"/>
	</clipPath>
	<path clip-path="url(#SVGID_6_)" fill="#00A85D" d="M123.948,138.18c0-2.635-1.65-3.821-3.673-3.821h-1.707v7.625h1.707
		C122.298,141.983,123.948,140.814,123.948,138.18"/>
</g>
<polygon fill="#00A85D" points="104.974,134.859 103.358,139.403 106.55,139.403 "/>
<g>
	<defs>
		<rect id="SVGID_7_" x="42.667" y="53.389" width="164.409" height="214.805"/>
	</defs>
	<clipPath id="SVGID_8_">
		<use xlink:href="#SVGID_7_"  overflow="visible"/>
	</clipPath>
	<path clip-path="url(#SVGID_8_)" fill="#FFFFFF" d="M112.663,180.918c0,4.857,1.692,7.089,3.834,9.921
		c2.4,3.168,5.387,7.111,5.387,14.435c0,7.321-2.986,11.266-5.387,14.438c-0.244,0.325-0.48,0.64-0.711,0.952
		c0.477,0.286,0.943,0.565,1.391,0.83l5.597,3.113c0.966-4.271,3.069-7.057,4.851-9.412c2.142-2.826,3.834-5.063,3.834-9.921
		s-1.692-7.094-3.834-9.919c-2.4-3.173-5.388-7.117-5.388-14.437c0-7.323,2.987-11.268,5.388-14.438
		c0.592-0.784,1.147-1.521,1.647-2.281c1.3-1.986,2.187-4.127,2.187-7.641c0-0.423-0.018-0.816-0.041-1.2h-9.569
		c0.019,0.392,0.036,0.786,0.036,1.2c0,7.322-2.986,11.268-5.387,14.437C114.355,173.825,112.663,176.063,112.663,180.918"/>
	<path clip-path="url(#SVGID_8_)" fill="#FFFFFF" d="M68.043,155.357c0.248,4.593,0.874,8.918,1.821,12.98
		c0.462-0.658,0.928-1.271,1.371-1.858c0.593-0.782,1.148-1.52,1.647-2.279c1.301-1.987,2.188-4.127,2.188-7.643
		c0-0.421-0.017-0.815-0.042-1.2H68.043z"/>
	<path clip-path="url(#SVGID_8_)" fill="#FFFFFF" d="M169.054,180.918c0,3.61,0.979,5.83,2.34,7.863
		c5.632-8.891,9.564-19.992,10.283-33.423h-3.438c0.019,0.392,0.037,0.786,0.037,1.2c0,7.319-2.987,11.268-5.387,14.437
		C170.743,173.822,169.054,176.063,169.054,180.918"/>
	<path clip-path="url(#SVGID_8_)" fill="#FFFFFF" d="M150.257,180.918c0,4.857,1.692,7.089,3.836,9.921
		c2.102,2.775,4.662,6.238,5.262,11.956c2.263-1.969,4.453-4.156,6.52-6.558c-0.203-0.272-0.451-0.614-0.656-0.883
		c-2.401-3.173-5.387-7.117-5.387-14.437c0-7.323,2.985-11.268,5.387-14.438c0.595-0.784,1.148-1.521,1.646-2.281
		c1.303-1.986,2.189-4.127,2.189-7.641c0-0.423-0.018-0.816-0.043-1.2h-9.57c0.02,0.392,0.037,0.786,0.037,1.2
		c0,7.319-2.986,11.268-5.385,14.437C151.949,173.822,150.257,176.063,150.257,180.918"/>
	<path clip-path="url(#SVGID_8_)" fill="#FFFFFF" d="M75.07,180.918c0,0.839,0.053,1.595,0.147,2.293
		c4.443,8.848,10.517,15.891,17.097,21.177c0.515,0.415,1.029,0.822,1.543,1.229c0.004-0.116,0.009-0.226,0.009-0.345
		c0-4.855-1.693-7.092-3.835-9.917c-2.4-3.173-5.385-7.117-5.385-14.437c0-7.323,2.984-11.268,5.385-14.438
		c0.595-0.784,1.152-1.524,1.648-2.284c1.301-1.987,2.187-4.125,2.187-7.638c0-0.423-0.019-0.816-0.042-1.2h-9.569
		c0.019,0.392,0.037,0.786,0.037,1.2c0,7.319-2.985,11.268-5.386,14.437C76.761,173.822,75.07,176.063,75.07,180.918"/>
	<path clip-path="url(#SVGID_8_)" fill="#FFFFFF" d="M93.864,180.918c0,4.857,1.693,7.089,3.838,9.921
		c2.398,3.168,5.385,7.111,5.385,14.433c0,2.545-0.365,4.674-0.937,6.513c2.114,1.489,4.165,2.878,6.116,4.155
		c0.189-0.253,0.377-0.503,0.561-0.745c2.142-2.826,3.836-5.063,3.836-9.921s-1.691-7.094-3.836-9.919
		c-2.398-3.173-5.385-7.117-5.385-14.437c0-7.323,2.986-11.268,5.385-14.438c0.592-0.784,1.149-1.521,1.646-2.281
		c1.301-1.986,2.189-4.126,2.189-7.641c0-0.423-0.017-0.816-0.041-1.2h-9.572c0.019,0.392,0.037,0.786,0.037,1.2
		c0,7.319-2.986,11.268-5.385,14.437C95.558,173.822,93.864,176.063,93.864,180.918"/>
	<path clip-path="url(#SVGID_8_)" fill="#FFFFFF" d="M131.458,180.918c0,4.857,1.694,7.089,3.834,9.921
		c2.402,3.168,5.391,7.111,5.391,14.435c0,7.321-2.988,11.266-5.391,14.438c-0.063,0.085-0.123,0.165-0.186,0.248l14.471-10.08
		c0.428-1.272,0.68-2.747,0.68-4.607c0-4.855-1.69-7.092-3.836-9.917c-2.398-3.173-5.387-7.117-5.387-14.437
		c0-7.323,2.988-11.268,5.387-14.438c0.594-0.784,1.15-1.521,1.647-2.281c1.302-1.986,2.188-4.127,2.188-7.641
		c0-0.423-0.018-0.816-0.041-1.2h-9.57c0.02,0.392,0.037,0.786,0.037,1.2c0,7.322-2.988,11.268-5.391,14.437
		C133.152,173.825,131.458,176.063,131.458,180.918"/>
	<path clip-path="url(#SVGID_8_)" fill="#FFFFFF" d="M160.363,208.489c-9.572,7.696-19.056,13.725-25.289,17.407l-10.22,5.688
		l-10.021-5.571c-6.36-3.758-15.944-9.848-25.485-17.525c-16.177-13.003-25.033-30.883-26.357-53.13H60.11
		c1.345,23.191,10.564,41.811,27.436,55.372c9.674,7.783,19.383,13.954,25.858,17.777l11.452,6.369l11.648-6.483
		c6.348-3.749,15.957-9.856,25.661-17.661c16.858-13.558,26.083-32.165,27.46-55.374h-2.881
		C185.392,177.623,176.527,195.49,160.363,208.489"/>
</g>
<polygon fill="#FFFFFF" points="62.862,121.471 62.862,63.034 186.881,63.034 186.881,121.471 189.757,121.471 189.757,60.157 
	59.985,60.157 59.985,121.471 "/>
<g>
	<defs>
		<rect id="SVGID_9_" x="42.667" y="53.389" width="164.409" height="214.805"/>
	</defs>
	<clipPath id="SVGID_10_">
		<use xlink:href="#SVGID_9_"  overflow="visible"/>
	</clipPath>
	<path clip-path="url(#SVGID_10_)" fill="#FFFFFF" d="M76.708,76.196h6.275v38.234h-6.275V76.196z M88.347,76.223
		c0.17-0.018,0.344-0.026,0.53-0.026c1.375,0,2.676,0.186,3.901,0.556c1.228,0.372,2.287,0.894,3.177,1.562
		c0.892,0.67,1.598,1.478,2.118,2.426c0.52,0.946,0.779,1.997,0.779,3.148c0,1.005-0.24,1.949-0.724,2.842
		c-0.481,0.892-1.132,1.7-1.95,2.425c-0.816,0.725-1.736,1.348-2.759,1.869c-1.022,0.519-2.054,0.91-3.093,1.168
		c0.929-0.889,1.625-1.959,2.09-3.204c0.465-1.244,0.697-2.497,0.697-3.76c0-1.823-0.467-3.542-1.395-5.156
		c-0.929-1.618-2.191-2.891-3.789-3.819C88.042,76.252,88.181,76.243,88.347,76.223 M101.753,98.937
		c0.704,1.226,1.057,2.639,1.057,4.234c0,1.711-0.416,3.263-1.255,4.655c-0.833,1.393-1.938,2.582-3.313,3.568
		c-1.375,0.982-2.926,1.746-4.655,2.283c-1.726,0.539-3.483,0.808-5.267,0.808c1.375-0.519,2.545-1.189,3.513-2.005
		c0.965-0.818,1.754-1.72,2.368-2.703c0.613-0.986,1.051-2.016,1.311-3.095c0.258-1.077,0.391-2.154,0.391-3.232
		c0-1.225-0.215-2.414-0.643-3.564c-0.428-1.153-0.957-2.194-1.587-3.123c-0.633-0.929-1.312-1.708-2.034-2.341
		c-0.725-0.632-1.386-1.06-1.98-1.28c1.783,0.072,3.465,0.332,5.045,0.778c1.578,0.445,2.973,1.087,4.18,1.921
		C100.088,96.678,101.048,97.709,101.753,98.937 M110.885,76.196h6.276v38.234h-6.276V76.196z M122.347,94.283
		c0.426-0.427,0.862-0.873,1.309-1.338c0.445-0.465,0.873-0.911,1.283-1.338c0.407-0.427,0.742-0.791,1.002-1.086
		c0.371,0.852,0.92,1.978,1.643,3.371c0.727,1.394,1.533,2.87,2.427,4.431c0.89,1.562,1.849,3.148,2.869,4.765
		c1.022,1.616,2.015,3.075,2.981,4.376c1.522,2.007,2.824,3.511,3.901,4.515c1.077,1.002,1.952,1.84,2.621,2.507h-6.578
		c-0.817,0-1.514-0.102-2.088-0.306c-0.578-0.204-1.062-0.454-1.45-0.752c-0.391-0.297-0.717-0.642-0.975-1.031
		c-0.26-0.391-0.501-0.789-0.725-1.2c-0.148-0.297-0.457-0.843-0.922-1.642c-0.463-0.801-1.012-1.746-1.643-2.844
		c-0.633-1.096-1.311-2.247-2.035-3.455s-1.402-2.35-2.033-3.428c-0.632-1.077-1.199-2.024-1.701-2.844
		c-0.5-0.816-0.826-1.355-0.975-1.615C121.556,95.071,121.919,94.71,122.347,94.283 M138.649,76.196l-9.811,10.924
		c0.63-1.746,1.114-3.195,1.45-4.347c0.332-1.15,0.502-2.154,0.502-3.01c0-1.039-0.244-1.85-0.726-2.425
		c-0.484-0.574-1.133-0.957-1.951-1.143H138.649z M148.032,76.196h6.275v38.234h-6.275V76.196z M160.223,76.223
		c0.167-0.018,0.343-0.026,0.529-0.026c1.373,0,2.676,0.186,3.901,0.556c1.227,0.372,2.287,0.894,3.178,1.562
		c0.891,0.67,1.598,1.478,2.117,2.426c0.52,0.946,0.779,1.997,0.779,3.148c0,1.005-0.24,1.949-0.724,2.842
		c-0.481,0.892-1.134,1.7-1.95,2.425c-0.818,0.725-1.736,1.348-2.758,1.869c-1.021,0.519-2.055,0.91-3.094,1.168
		c0.928-0.889,1.625-1.959,2.092-3.204c0.463-1.244,0.695-2.497,0.695-3.76c0-1.823-0.465-3.542-1.395-5.156
		c-0.93-1.618-2.193-2.891-3.789-3.819C159.916,76.252,160.058,76.243,160.223,76.223 M173.627,98.937
		c0.707,1.226,1.06,2.639,1.06,4.234c0,1.711-0.418,3.263-1.254,4.655c-0.837,1.393-1.943,2.582-3.318,3.568
		c-1.373,0.982-2.924,1.746-4.652,2.283c-1.727,0.539-3.482,0.808-5.266,0.808c1.373-0.519,2.543-1.189,3.51-2.005
		c0.965-0.818,1.756-1.72,2.369-2.703c0.613-0.986,1.051-2.016,1.309-3.095c0.262-1.077,0.393-2.154,0.393-3.232
		c0-1.225-0.215-2.414-0.643-3.564c-0.428-1.153-0.957-2.194-1.588-3.123c-0.632-0.929-1.309-1.708-2.033-2.341
		c-0.727-0.632-1.388-1.06-1.979-1.28c1.783,0.072,3.461,0.332,5.043,0.778c1.58,0.445,2.973,1.087,4.181,1.921
		C171.965,96.678,172.92,97.709,173.627,98.937 M67.532,121.471h0.006h114.676h0.005V67.278h-0.005H67.536H67.53l0.011,14.699
		c0,6.969,0,23.331-0.012,32.735L67.532,121.471z"/>
</g>
<path fill="#FFFFFF" d="M71.955,139.403l1.614-4.544l1.577,4.544H71.955z M71.918,131.594l-4.373,11.612l-0.005,0.015l-0.575,1.525
	h0.575h0.006h2.499l0.946-2.672h5.082l0.947,2.672h3.19l-4.897-13.152H71.918z"/>
<g>
	<defs>
		<rect id="SVGID_11_" x="42.667" y="53.389" width="164.409" height="214.805"/>
	</defs>
	<clipPath id="SVGID_12_">
		<use xlink:href="#SVGID_11_"  overflow="visible"/>
	</clipPath>
	<path clip-path="url(#SVGID_12_)" fill="#FFFFFF" d="M89.577,142.094c-1.967,0-3.783-1.429-3.783-3.896
		c0-2.764,1.984-4.024,3.746-4.024c2.318,0,3.153,1.539,3.357,2.448l2.764-0.871c-0.427-1.894-2.17-4.434-6.121-4.434
		c-3.674,0-6.789,2.782-6.789,6.881c0,4.101,3.043,6.826,6.826,6.826c4.08,0,5.824-2.782,6.252-4.6l-2.802-0.797
		C92.768,140.571,91.858,142.094,89.577,142.094"/>
</g>
<path fill="#FFFFFF" d="M103.358,139.403l1.614-4.544l1.577,4.544H103.358z M103.321,131.594l-4.953,13.152h3.08l0.947-2.672h5.081
	l0.946,2.672h3.189l-4.896-13.152H103.321z"/>
<g>
	<defs>
		<rect id="SVGID_13_" x="42.667" y="53.389" width="164.409" height="214.805"/>
	</defs>
	<clipPath id="SVGID_14_">
		<use xlink:href="#SVGID_13_"  overflow="visible"/>
	</clipPath>
	<path clip-path="url(#SVGID_14_)" fill="#FFFFFF" d="M120.274,141.983h-1.705v-7.625h1.705c2.023,0,3.674,1.187,3.674,3.821
		S122.298,141.983,120.274,141.983 M120.405,131.594h-4.768v13.152h4.749c3.97,0,6.622-2.504,6.622-6.566
		C127.009,134.116,124.356,131.594,120.405,131.594"/>
</g>
<polygon fill="#FFFFFF" points="134.447,139.44 139.346,139.44 139.346,136.862 134.447,136.862 134.447,134.358 139.846,134.358 
	139.846,131.595 131.516,131.595 131.516,144.746 139.862,144.746 139.862,141.964 134.447,141.964 "/>
<polygon fill="#FFFFFF" points="152.181,140.479 148.563,131.595 144.741,131.595 144.741,144.746 147.524,144.746 147.524,136.14 
	150.958,144.746 153.331,144.746 156.763,136.027 156.763,144.746 159.638,144.746 159.638,131.595 155.611,131.595 "/>
<rect x="164.905" y="131.595" fill="#FFFFFF" width="2.968" height="13.151"/>
<polygon fill="#FFFFFF" points="176.054,139.44 180.949,139.44 180.949,136.862 176.054,136.862 176.054,134.358 181.452,134.358 
	181.452,131.595 173.122,131.595 173.122,144.746 181.47,144.746 181.47,141.964 176.054,141.964 "/>
<g>
	<defs>
		<rect id="SVGID_15_" x="42.667" y="53.389" width="164.409" height="214.805"/>
	</defs>
	<clipPath id="SVGID_16_">
		<use xlink:href="#SVGID_15_"  overflow="visible"/>
	</clipPath>
	<path clip-path="url(#SVGID_16_)" fill="#FFFFFF" d="M59.985,136.223c-0.122-0.024-0.249-0.038-0.378-0.038
		c-1.067,0-1.933,0.865-1.933,1.933c0,1.066,0.866,1.931,1.933,1.931c0.129,0,0.256-0.014,0.378-0.037
		c0.885-0.177,1.553-0.957,1.553-1.894S60.871,136.398,59.985,136.223"/>
	<path clip-path="url(#SVGID_16_)" fill="#FFFFFF" d="M190.135,136.184c-0.13,0-0.255,0.015-0.378,0.038
		c-0.884,0.177-1.552,0.958-1.552,1.896c0,0.937,0.668,1.717,1.552,1.893c0.123,0.024,0.248,0.038,0.378,0.038
		c1.068,0,1.935-0.865,1.935-1.931C192.069,137.05,191.203,136.184,190.135,136.184"/>
</g>
<path fill="#FFFFFF" d="M200.198,150.423h-5.74h-4.701h-2.876H62.862h-2.876H55.29h-5.744V126.05h5.734h4.705h2.877h4.672h0.006
	h114.674h0.005h4.662h2.876h4.715h5.727V150.423z M194.472,123.968h-4.715h-2.876h-4.662h-0.005H67.539h-0.006h-4.671h-2.877H55.28
	h-7.815v28.537h7.869h4.652h2.876h3.37h1.713h6.614h9.382h9.413h9.384h9.414h9.381h9.416h9.383h9.414h9.381h9.416h9.382h3.856h1.711
	h3.39h2.876h4.648h7.873v-28.537H194.472z"/>
</svg>
