<svg xmlns="http://www.w3.org/2000/svg" data-name="Layer 1" viewBox="0 0 100 100" x="0px" y="0px"><path style="fill: #1d386f" d="M1,80.36a2.5,2.5,0,0,0,5,0,44.51,44.51,0,0,1,1.18-10.7A42.37,42.37,0,0,1,23.6,45.27a2.53,2.53,0,0,0,1-2.26c0-.33-.61-7.3,5.61-16L35,40.13a2.5,2.5,0,0,0,2.11,1.62l5.07.48a11.11,11.11,0,0,1,9,6.46l1.3,2.87a2.5,2.5,0,0,0,1.31,1.28l16.84,7a2.51,2.51,0,0,1,.87,4L70,65.58a18.09,18.09,0,0,1-10.9,5.61l-1.27.17a21.57,21.57,0,0,1-9.41-.83l-6.32-2a2.5,2.5,0,0,0-2.94,3.59c2.57,4.65,5.68,14.88,4.21,22.05a2.5,2.5,0,1,0,4.9,1C49.6,88.86,48,80.88,45.89,75l1.05.33a26.56,26.56,0,0,0,11.57,1l1.27-.17A23.1,23.1,0,0,0,73.7,69l1.55-1.67a7.51,7.51,0,0,0-2.6-12L56.71,48.61l-.89-2A16,16,0,0,0,51.53,41l1.14-17.31a2.5,2.5,0,0,0-3.53-2.44c-1.33.6-2.62,1.26-3.83,2a41.13,41.13,0,0,0-3.56,2.29A35.89,35.89,0,0,0,36.62,30l-3.26-8.84a2.5,2.5,0,0,0-4.22-.79c-8.45,9.53-9.52,18.31-9.57,21.72A47.75,47.75,0,0,0,2.32,68.47,49.39,49.39,0,0,0,1,80.36ZM44.66,29.54c.86-.62,1.78-1.22,2.73-1.78L46.7,38.17a16,16,0,0,0-4-.92l-3.5-.33-.59-1.61A29.61,29.61,0,0,1,44.66,29.54Z"/><path style="fill: #1d386f" d="M45.32,50.89a2.5,2.5,0,0,0-2.5-2.5h0a2.5,2.5,0,1,0,2.51,2.5Z"/><path style="fill: #1d386f" d="M90.72,2.83H66.21a8.29,8.29,0,0,0-8.28,8.28V41.18a4.62,4.62,0,0,0,2.7,4.23,4.68,4.68,0,0,0,2,.44,4.63,4.63,0,0,0,3-1.11l5.89-5H90.72A8.29,8.29,0,0,0,99,31.5V11.11A8.29,8.29,0,0,0,90.72,2.83ZM94,31.5a3.28,3.28,0,0,1-3.28,3.28H70.57a2.5,2.5,0,0,0-1.61.59l-6,5.1V11.11a3.28,3.28,0,0,1,3.28-3.28H90.72A3.28,3.28,0,0,1,94,11.11Z"/><path style="fill: #1d386f" d="M78.46,12.07a2.5,2.5,0,0,0-2.5,2.5v6.12a2.5,2.5,0,1,0,5,0V14.57A2.5,2.5,0,0,0,78.46,12.07Z"/><path style="fill: #1d386f" d="M78.46,25.86a2.5,2.5,0,0,0-2.5,2.5v.12a2.5,2.5,0,1,0,5,0v-.12A2.5,2.5,0,0,0,78.46,25.86Z"/></svg>