<?xml version="1.0" standalone="no"?>
<!DOCTYPE svg PUBLIC "-//W3C//DTD SVG 20010904//EN"
 "http://www.w3.org/TR/2001/REC-SVG-20010904/DTD/svg10.dtd">
<svg version="1.0" xmlns="http://www.w3.org/2000/svg"
 width="554.000000pt" height="559.000000pt" viewBox="0 0 554.000000 559.000000"
 preserveAspectRatio="xMidYMid meet">
<metadata>
Created by potrace 1.15, written by Peter Selinger 2001-2017
</metadata>
<g transform="translate(0.000000,559.000000) scale(0.100000,-0.100000)"
fill="#000000" stroke="none">
<path d="M2683 5055 c-130 -36 -221 -133 -259 -275 -17 -64 -17 -67 6 -144 26
-88 70 -154 134 -203 62 -48 119 -66 211 -67 72 -1 88 3 147 32 123 60 198
176 200 307 1 103 -22 170 -84 240 -91 104 -226 146 -355 110z"/>
<path d="M953 3789 l-251 -440 710 -1227 c390 -675 742 -1282 781 -1349 l72
-123 247 0 c148 0 248 4 248 9 0 6 -31 63 -69 128 -37 65 -360 622 -716 1238
-356 616 -730 1263 -831 1437 -101 174 -184 319 -184 322 0 4 813 6 1806 6
1472 0 1805 2 1802 13 -2 7 -57 106 -123 220 l-120 207 -1560 0 -1560 -1 -252
-440z"/>
<path d="M4408 3493 c-91 -159 -347 -601 -568 -983 -221 -382 -552 -955 -736
-1272 -184 -318 -334 -580 -334 -583 0 -3 114 -5 253 -5 229 0 253 2 263 17 6
10 276 479 601 1043 325 564 670 1163 767 1332 l178 308 -123 215 c-68 118
-126 215 -129 215 -3 0 -81 -129 -172 -287z"/>
<path d="M976 2104 c-108 -28 -192 -97 -244 -204 -23 -46 -27 -67 -26 -135 1
-129 50 -227 147 -294 205 -141 473 -40 543 203 69 245 -173 493 -420 430z"/>
<path d="M4385 2097 c-67 -21 -131 -62 -169 -108 -34 -41 -76 -122 -76 -149 0
-11 -4 -20 -8 -20 -4 0 -5 -34 -1 -75 12 -123 73 -228 167 -287 49 -30 140
-54 197 -52 66 3 83 8 144 39 164 82 241 289 168 449 -45 98 -110 161 -203
196 -76 28 -148 31 -219 7z"/>
</g>
</svg>
